<?xml version="1.0" encoding="UTF-8" standalone="no"?>
<svg width="39px" height="39px" viewBox="0 0 39 39" version="1.1" xmlns="http://www.w3.org/2000/svg" xmlns:xlink="http://www.w3.org/1999/xlink">
    <!-- Generator: Sketch 3.8.2 (29753) - http://www.bohemiancoding.com/sketch -->
    <title>4</title>
    <desc>Created with Sketch.</desc>
    <defs>
        <path d="M24.5666667,4.08333333 L14.1625,4.08333333 L14.1625,5.45833333 L24.5666667,5.45833333 L24.5666667,4.08333333 L24.5666667,4.08333333 L24.5666667,4.08333333 Z M34.6041667,4.08333333 L28.6458333,4.08333333 L28.6458333,5.45833333 L34.6041667,5.45833333 C35.9791667,5.45833333 37.125,6.60416667 37.125,7.97916667 L37.125,29.75 L34.1,29.75 C31.9458333,29.75 30.2041667,31.4916667 30.2041667,33.6458333 L30.2041667,36.625 L3.89583333,36.625 C2.52083333,36.625 1.375,35.4791667 1.375,34.1041667 L1.375,7.97916667 C1.375,6.60416667 2.52083333,5.45833333 3.89583333,5.45833333 L10.0833333,5.45833333 L10.0833333,4.08333333 L3.89583333,4.08333333 C1.74166667,4.08333333 0,5.825 0,7.97916667 L0,34.1041667 C0,36.2583333 1.74166667,38 3.89583333,38 L31.5791667,38 L31.625,37.9541667 L38.3166667,31.3541667 L38.5,31.1708333 L38.5,7.97916667 C38.5,5.825 36.7583333,4.08333333 34.6041667,4.08333333 L34.6041667,4.08333333 L34.6041667,4.08333333 Z M31.5791667,36.0291667 L31.5791667,33.6458333 C31.5791667,32.2708333 32.725,31.125 34.1,31.125 L36.575,31.125 L31.5791667,36.0291667 L31.5791667,36.0291667 L31.5791667,36.0291667 Z M12.1,9.21666667 C12.4666667,9.21666667 12.7875,8.89583333 12.7875,8.52916667 L12.7875,1.10416667 C12.7875,0.7375 12.4666667,0.416666667 12.1,0.416666667 C11.7333333,0.416666667 11.4125,0.7375 11.4125,1.10416667 L11.4125,8.52916667 C11.4125,8.94166667 11.7333333,9.21666667 12.1,9.21666667 L12.1,9.21666667 L12.1,9.21666667 Z M26.6291667,9.21666667 C26.9958333,9.21666667 27.3166667,8.89583333 27.3166667,8.52916667 L27.3166667,1.10416667 C27.3166667,0.7375 26.9958333,0.416666667 26.6291667,0.416666667 C26.2625,0.416666667 25.9416667,0.7375 25.9416667,1.10416667 L25.9416667,8.52916667 C25.9416667,8.94166667 26.2166667,9.21666667 26.6291667,9.21666667 L26.6291667,9.21666667 L26.6291667,9.21666667 Z" id="path-1"></path>
        <mask id="mask-2" maskContentUnits="userSpaceOnUse" maskUnits="objectBoundingBox" x="0" y="0" width="38.5" height="37.5833333" fill="white">
            <use xlink:href="#path-1"></use>
        </mask>
    </defs>
    <g id="LP" stroke="none" stroke-width="1" fill="none" fill-rule="evenodd">
        <g id="icons" transform="translate(-21.000000, -218.000000)">
            <g id="4" transform="translate(21.000000, 218.142857)">
                <g id="Group">
                    <use id="Shape" stroke="#979797" mask="url(#mask-2)" stroke-width="1.4" xlink:href="#path-1"></use>
                    <path d="M17.2333333,29.6583333 C17.3708333,29.7958333 17.5541667,29.8875 17.7375,29.8875 L17.7375,29.8875 C17.9666667,29.8875 18.15,29.7958333 18.2875,29.6125 L29.425,15.45 C29.6541667,15.1291667 29.6083333,14.7166667 29.2875,14.4875 C29.0125,14.2583333 28.5541667,14.3041667 28.325,14.625 L17.7375,28.1458333 L11.5041667,20.5833333 C11.275,20.3083333 10.8166667,20.2625 10.5416667,20.4916667 C10.2666667,20.7208333 10.2208333,21.1791667 10.45,21.4541667 L17.2333333,29.6583333 L17.2333333,29.6583333 L17.2333333,29.6583333 Z" id="Path" stroke="#2ECC71" fill="#2ECC71"></path>
                </g>
            </g>
        </g>
    </g>
</svg>